<?xml version="1.0" encoding="UTF-8" standalone="no"?>
<!DOCTYPE svg PUBLIC "-//W3C//DTD SVG 1.1//EN"
 "http://www.w3.org/Graphics/SVG/1.1/DTD/svg11.dtd">
<!-- Generated by graphviz version 2.43.0 (0)
 -->
<!-- Title: tree Pages: 1 -->
<svg width="1223pt" height="2240pt"
 viewBox="0.00 0.00 1222.68 2240.48" xmlns="http://www.w3.org/2000/svg" xmlns:xlink="http://www.w3.org/1999/xlink">
<g id="graph0" class="graph" transform="scale(1 1) rotate(0) translate(4 2236.48)">
<title>tree</title>
<polygon fill="white" stroke="transparent" points="-4,4 -4,-2236.48 1218.68,-2236.48 1218.68,4 -4,4"/>
<!-- DataSapiens -->
<g id="node1" class="node">
<title>DataSapiens</title>
<ellipse fill="none" stroke="black" cx="123.04" cy="-428.74" rx="123.07" ry="53.98"/>
<g id="a_node1_0"><a xlink:href="/home/hp/Downloads/btp/Data-Sapiens" xlink:title="&lt;TABLE&gt;">
<text text-anchor="start" x="46.04" y="-441.54" font-family="ambrosia" font-size="24.00">DataSapiens</text>
<text text-anchor="start" x="80.04" y="-419.54" font-family="Times,serif" font-size="14.00">#Lines : NA</text>
<text text-anchor="start" x="67.04" y="-400.54" font-family="Times,serif" font-size="14.00">#Commits : NA</text>
</a>
</g>
</g>
<!-- SQLfiles -->
<g id="node2" class="node">
<title>SQLfiles</title>
<ellipse fill="none" stroke="black" cx="467.34" cy="-1865.74" rx="84.29" ry="53.98"/>
<g id="a_node2_1"><a xlink:href="/home/hp/Downloads/btp/Data-Sapiens/SQL files" xlink:title="&lt;TABLE&gt;">
<text text-anchor="start" x="419.34" y="-1878.54" font-family="ambrosia" font-size="24.00">SQLfiles</text>
<text text-anchor="start" x="424.84" y="-1856.54" font-family="Times,serif" font-size="14.00">#Lines : NA</text>
<text text-anchor="start" x="418.34" y="-1837.54" font-family="Times,serif" font-size="14.00">#Commits : 1</text>
</a>
</g>
</g>
<!-- DataSapiens&#45;&gt;SQLfiles -->
<g id="edge1" class="edge">
<title>DataSapiens&#45;&gt;SQLfiles</title>
<path fill="none" stroke="black" d="M136.05,-482.33C162.09,-598.2 225.92,-880.67 282.07,-1116.74 342.64,-1371.38 418.13,-1673.8 450.45,-1802.6"/>
<polygon fill="black" stroke="black" points="447.15,-1803.84 452.98,-1812.68 453.94,-1802.13 447.15,-1803.84"/>
</g>
<!-- FRONT_END -->
<g id="node8" class="node">
<title>FRONT_END</title>
<ellipse fill="none" stroke="black" cx="467.34" cy="-1053.74" rx="117.26" ry="53.98"/>
<g id="a_node8_2"><a xlink:href="/home/hp/Downloads/btp/Data-Sapiens/FRONT_END" xlink:title="&lt;TABLE&gt;">
<text text-anchor="start" x="394.34" y="-1066.54" font-family="ambrosia" font-size="24.00">FRONT_END</text>
<text text-anchor="start" x="424.34" y="-1044.54" font-family="Times,serif" font-size="14.00">#Lines : NA</text>
<text text-anchor="start" x="413.34" y="-1025.54" font-family="Times,serif" font-size="14.00">#Commits : 16</text>
</a>
</g>
</g>
<!-- DataSapiens&#45;&gt;FRONT_END -->
<g id="edge7" class="edge">
<title>DataSapiens&#45;&gt;FRONT_END</title>
<path fill="none" stroke="black" d="M152.63,-480.95C215.57,-595.87 365.81,-870.2 432.94,-992.77"/>
<polygon fill="black" stroke="black" points="429.95,-994.59 437.82,-1001.68 436.09,-991.23 429.95,-994.59"/>
</g>
<!-- data_files -->
<g id="node17" class="node">
<title>data_files</title>
<ellipse fill="none" stroke="black" cx="467.34" cy="-553.74" rx="96.75" ry="53.98"/>
<g id="a_node17_3"><a xlink:href="/home/hp/Downloads/btp/Data-Sapiens/data_files" xlink:title="&lt;TABLE&gt;">
<text text-anchor="start" x="409.34" y="-566.54" font-family="ambrosia" font-size="24.00">data_files</text>
<text text-anchor="start" x="424.84" y="-544.54" font-family="Times,serif" font-size="14.00">#Lines : NA</text>
<text text-anchor="start" x="418.34" y="-525.54" font-family="Times,serif" font-size="14.00">#Commits : 1</text>
</a>
</g>
</g>
<!-- DataSapiens&#45;&gt;data_files -->
<g id="edge16" class="edge">
<title>DataSapiens&#45;&gt;data_files</title>
<path fill="none" stroke="black" d="M213.55,-465.41C235.84,-474.27 259.75,-483.54 282.07,-491.74 311.53,-502.56 343.91,-513.7 373.18,-523.5"/>
<polygon fill="black" stroke="black" points="372.39,-526.92 382.99,-526.77 374.61,-520.28 372.39,-526.92"/>
</g>
<!-- run -->
<g id="node21" class="node">
<title>run</title>
<ellipse fill="none" stroke="black" cx="467.34" cy="-428.74" rx="84.29" ry="53.98"/>
<g id="a_node21_4"><a xlink:href="/home/hp/Downloads/btp/Data-Sapiens/run.sh" xlink:title="&lt;TABLE&gt;">
<text text-anchor="start" x="423.84" y="-441.54" font-family="ambrosia" font-size="24.00">run#sh</text>
<text text-anchor="start" x="431.34" y="-419.54" font-family="Times,serif" font-size="14.00">#Lines : 5</text>
<text text-anchor="start" x="418.34" y="-400.54" font-family="Times,serif" font-size="14.00">#Commits : 2</text>
</a>
</g>
</g>
<!-- DataSapiens&#45;&gt;run -->
<g id="edge20" class="edge">
<title>DataSapiens&#45;&gt;run</title>
<path fill="none" stroke="black" d="M246.16,-428.74C287.85,-428.74 333.77,-428.74 372.84,-428.74"/>
<polygon fill="black" stroke="black" points="373.14,-432.24 383.14,-428.74 373.14,-425.24 373.14,-432.24"/>
</g>
<!-- GROUP_25 -->
<g id="node22" class="node">
<title>GROUP_25</title>
<ellipse fill="none" stroke="black" cx="467.34" cy="-303.74" rx="143.59" ry="53.98"/>
<g id="a_node22_5"><a xlink:href="/home/hp/Downloads/btp/Data-Sapiens/GROUP_25.zip" xlink:title="&lt;TABLE&gt;">
<text text-anchor="start" x="376.34" y="-316.54" font-family="ambrosia" font-size="24.00">GROUP_25#zip</text>
<text text-anchor="start" x="426.84" y="-294.54" font-family="Times,serif" font-size="14.00">#Lines : 97</text>
<text text-anchor="start" x="418.34" y="-275.54" font-family="Times,serif" font-size="14.00">#Commits : 1</text>
</a>
</g>
</g>
<!-- DataSapiens&#45;&gt;GROUP_25 -->
<g id="edge21" class="edge">
<title>DataSapiens&#45;&gt;GROUP_25</title>
<path fill="none" stroke="black" d="M213.55,-392.07C235.84,-383.21 259.75,-373.94 282.07,-365.74 303.56,-357.85 326.59,-349.79 348.84,-342.2"/>
<polygon fill="black" stroke="black" points="349.98,-345.51 358.32,-338.98 347.73,-338.88 349.98,-345.51"/>
</g>
<!-- app -->
<g id="node23" class="node">
<title>app</title>
<ellipse fill="none" stroke="black" cx="467.34" cy="-178.74" rx="90.52" ry="53.98"/>
<g id="a_node23_6"><a xlink:href="/home/hp/Downloads/btp/Data-Sapiens/app.py" xlink:title="&lt;TABLE&gt;">
<polygon fill="blue" stroke="transparent" points="411.34,-144.74 411.34,-212.74 523.34,-212.74 523.34,-144.74 411.34,-144.74"/>
<text text-anchor="start" x="419.84" y="-191.54" font-family="ambrosia" font-size="24.00">app#py</text>
<text text-anchor="start" x="421.84" y="-169.54" font-family="Times,serif" font-size="14.00">#Lines : 500</text>
<text text-anchor="start" x="413.34" y="-150.54" font-family="Times,serif" font-size="14.00">#Commits : 15</text>
</a>
</g>
</g>
<!-- DataSapiens&#45;&gt;app -->
<g id="edge22" class="edge">
<title>DataSapiens&#45;&gt;app</title>
<path fill="none" stroke="black" d="M155.98,-376.84C184.35,-334.72 229.4,-276.64 282.07,-240.74 308.88,-222.47 341.52,-209.19 371.85,-199.71"/>
<polygon fill="black" stroke="black" points="373.04,-203.01 381.6,-196.77 371.02,-196.31 373.04,-203.01"/>
</g>
<!-- setup_front_end -->
<g id="node24" class="node">
<title>setup_front_end</title>
<ellipse fill="none" stroke="black" cx="467.34" cy="-53.74" rx="185.02" ry="53.98"/>
<g id="a_node24_7"><a xlink:href="/home/hp/Downloads/btp/Data-Sapiens/setup_front_end.sh" xlink:title="&lt;TABLE&gt;">
<text text-anchor="start" x="346.34" y="-66.54" font-family="ambrosia" font-size="24.00">setup_front_end#sh</text>
<text text-anchor="start" x="430.84" y="-44.54" font-family="Times,serif" font-size="14.00">#Lines : 2</text>
<text text-anchor="start" x="417.84" y="-25.54" font-family="Times,serif" font-size="14.00">#Commits : 2</text>
</a>
</g>
</g>
<!-- DataSapiens&#45;&gt;setup_front_end -->
<g id="edge23" class="edge">
<title>DataSapiens&#45;&gt;setup_front_end</title>
<path fill="none" stroke="black" d="M137.39,-375.22C157.4,-305.8 201.67,-185.39 282.07,-115.74 292.23,-106.94 303.69,-99.37 315.8,-92.87"/>
<polygon fill="black" stroke="black" points="317.4,-95.99 324.73,-88.33 314.23,-89.75 317.4,-95.99"/>
</g>
<!-- queries -->
<g id="node3" class="node">
<title>queries</title>
<ellipse fill="none" stroke="black" cx="951.64" cy="-2178.74" rx="116.85" ry="53.98"/>
<g id="a_node3_8"><a xlink:href="/home/hp/Downloads/btp/Data-Sapiens/SQL files/queries.sql" xlink:title="&lt;TABLE&gt;">
<text text-anchor="start" x="879.64" y="-2191.54" font-family="ambrosia" font-size="24.00">queries#sql</text>
<text text-anchor="start" x="906.64" y="-2169.54" font-family="Times,serif" font-size="14.00">#Lines : 118</text>
<text text-anchor="start" x="902.64" y="-2150.54" font-family="Times,serif" font-size="14.00">#Commits : 1</text>
</a>
</g>
</g>
<!-- SQLfiles&#45;&gt;queries -->
<g id="edge2" class="edge">
<title>SQLfiles&#45;&gt;queries</title>
<path fill="none" stroke="black" d="M498.43,-1915.76C535.74,-1973.31 604.76,-2066.32 688.6,-2116.74 730.31,-2141.82 781.43,-2156.76 827.41,-2165.65"/>
<polygon fill="black" stroke="black" points="826.98,-2169.13 837.45,-2167.51 828.25,-2162.25 826.98,-2169.13"/>
</g>
<!-- optimization -->
<g id="node4" class="node">
<title>optimization</title>
<ellipse fill="none" stroke="black" cx="951.64" cy="-2053.74" rx="159.61" ry="53.98"/>
<g id="a_node4_9"><a xlink:href="/home/hp/Downloads/btp/Data-Sapiens/SQL files/optimization.sql" xlink:title="&lt;TABLE&gt;">
<text text-anchor="start" x="848.64" y="-2066.54" font-family="ambrosia" font-size="24.00">optimization#sql</text>
<text text-anchor="start" x="915.14" y="-2044.54" font-family="Times,serif" font-size="14.00">#Lines : 1</text>
<text text-anchor="start" x="902.14" y="-2025.54" font-family="Times,serif" font-size="14.00">#Commits : 1</text>
</a>
</g>
</g>
<!-- SQLfiles&#45;&gt;optimization -->
<g id="edge3" class="edge">
<title>SQLfiles&#45;&gt;optimization</title>
<path fill="none" stroke="black" d="M525.85,-1904.78C569,-1932.52 630.41,-1968.77 688.6,-1991.74 723.92,-2005.69 763.22,-2017.02 800.41,-2026"/>
<polygon fill="black" stroke="black" points="799.78,-2029.45 810.32,-2028.36 801.4,-2022.64 799.78,-2029.45"/>
</g>
<!-- delete_data -->
<g id="node5" class="node">
<title>delete_data</title>
<ellipse fill="none" stroke="black" cx="951.64" cy="-1928.74" rx="154.71" ry="53.98"/>
<g id="a_node5_10"><a xlink:href="/home/hp/Downloads/btp/Data-Sapiens/SQL files/delete_data.sql" xlink:title="&lt;TABLE&gt;">
<text text-anchor="start" x="852.64" y="-1941.54" font-family="ambrosia" font-size="24.00">delete_data#sql</text>
<text text-anchor="start" x="911.14" y="-1919.54" font-family="Times,serif" font-size="14.00">#Lines : 23</text>
<text text-anchor="start" x="902.64" y="-1900.54" font-family="Times,serif" font-size="14.00">#Commits : 1</text>
</a>
</g>
</g>
<!-- SQLfiles&#45;&gt;delete_data -->
<g id="edge4" class="edge">
<title>SQLfiles&#45;&gt;delete_data</title>
<path fill="none" stroke="black" d="M549.88,-1876.39C616.98,-1885.16 714.01,-1897.83 795.79,-1908.51"/>
<polygon fill="black" stroke="black" points="795.82,-1912.05 806.19,-1909.87 796.73,-1905.11 795.82,-1912.05"/>
</g>
<!-- import_database -->
<g id="node6" class="node">
<title>import_database</title>
<ellipse fill="none" stroke="black" cx="951.64" cy="-1803.74" rx="197.07" ry="53.98"/>
<g id="a_node6_11"><a xlink:href="/home/hp/Downloads/btp/Data-Sapiens/SQL files/import_database.sql" xlink:title="&lt;TABLE&gt;">
<text text-anchor="start" x="822.64" y="-1816.54" font-family="ambrosia" font-size="24.00">import_database#sql</text>
<text text-anchor="start" x="911.14" y="-1794.54" font-family="Times,serif" font-size="14.00">#Lines : 25</text>
<text text-anchor="start" x="902.64" y="-1775.54" font-family="Times,serif" font-size="14.00">#Commits : 1</text>
</a>
</g>
</g>
<!-- SQLfiles&#45;&gt;import_database -->
<g id="edge5" class="edge">
<title>SQLfiles&#45;&gt;import_database</title>
<path fill="none" stroke="black" d="M549.88,-1855.26C608.11,-1847.77 688.89,-1837.39 762.67,-1827.9"/>
<polygon fill="black" stroke="black" points="763.56,-1831.32 773.04,-1826.57 762.67,-1824.37 763.56,-1831.32"/>
</g>
<!-- database_structure -->
<g id="node7" class="node">
<title>database_structure</title>
<ellipse fill="none" stroke="black" cx="951.64" cy="-1678.74" rx="218.49" ry="53.98"/>
<g id="a_node7_12"><a xlink:href="/home/hp/Downloads/btp/Data-Sapiens/SQL files/database_structure.sql" xlink:title="&lt;TABLE&gt;">
<text text-anchor="start" x="807.64" y="-1691.54" font-family="ambrosia" font-size="24.00">database_structure#sql</text>
<text text-anchor="start" x="906.64" y="-1669.54" font-family="Times,serif" font-size="14.00">#Lines : 127</text>
<text text-anchor="start" x="902.64" y="-1650.54" font-family="Times,serif" font-size="14.00">#Commits : 1</text>
</a>
</g>
</g>
<!-- SQLfiles&#45;&gt;database_structure -->
<g id="edge6" class="edge">
<title>SQLfiles&#45;&gt;database_structure</title>
<path fill="none" stroke="black" d="M525.9,-1827.03C569.07,-1799.53 630.48,-1763.57 688.6,-1740.74 714.29,-1730.65 742.07,-1721.92 769.6,-1714.45"/>
<polygon fill="black" stroke="black" points="770.56,-1717.82 779.33,-1711.86 768.76,-1711.05 770.56,-1717.82"/>
</g>
<!-- nasdaq -->
<g id="node9" class="node">
<title>nasdaq</title>
<ellipse fill="none" stroke="black" cx="951.64" cy="-1553.74" rx="129.3" ry="53.98"/>
<g id="a_node9_13"><a xlink:href="/home/hp/Downloads/btp/Data-Sapiens/FRONT_END/nasdaq.html" xlink:title="&lt;TABLE&gt;">
<text text-anchor="start" x="870.64" y="-1566.54" font-family="ambrosia" font-size="24.00">nasdaq#html</text>
<text text-anchor="start" x="906.64" y="-1544.54" font-family="Times,serif" font-size="14.00">#Lines : 359</text>
<text text-anchor="start" x="902.64" y="-1525.54" font-family="Times,serif" font-size="14.00">#Commits : 6</text>
</a>
</g>
</g>
<!-- FRONT_END&#45;&gt;nasdaq -->
<g id="edge8" class="edge">
<title>FRONT_END&#45;&gt;nasdaq</title>
<path fill="none" stroke="black" d="M479.76,-1107.55C502.47,-1200.81 562.36,-1392.02 688.6,-1491.74 724.07,-1519.76 770.12,-1535.46 813.71,-1544.15"/>
<polygon fill="black" stroke="black" points="813.08,-1547.59 823.55,-1546 814.37,-1540.71 813.08,-1547.59"/>
</g>
<!-- account -->
<g id="node10" class="node">
<title>account</title>
<ellipse fill="none" stroke="black" cx="951.64" cy="-1428.74" rx="135.53" ry="53.98"/>
<g id="a_node10_14"><a xlink:href="/home/hp/Downloads/btp/Data-Sapiens/FRONT_END/account.html" xlink:title="&lt;TABLE&gt;">
<text text-anchor="start" x="865.64" y="-1441.54" font-family="ambrosia" font-size="24.00">account#html</text>
<text text-anchor="start" x="910.64" y="-1419.54" font-family="Times,serif" font-size="14.00">#Lines : 66</text>
<text text-anchor="start" x="902.14" y="-1400.54" font-family="Times,serif" font-size="14.00">#Commits : 5</text>
</a>
</g>
</g>
<!-- FRONT_END&#45;&gt;account -->
<g id="edge9" class="edge">
<title>FRONT_END&#45;&gt;account</title>
<path fill="none" stroke="black" d="M490.77,-1106.53C523.57,-1177.13 591.47,-1301.01 688.6,-1366.74 724.08,-1390.75 767.75,-1405.52 809.18,-1414.58"/>
<polygon fill="black" stroke="black" points="808.6,-1418.04 819.1,-1416.65 810.03,-1411.18 808.6,-1418.04"/>
</g>
<!-- dashboard -->
<g id="node11" class="node">
<title>dashboard</title>
<ellipse fill="none" stroke="black" cx="951.64" cy="-1303.74" rx="157.87" ry="53.98"/>
<g id="a_node11_15"><a xlink:href="/home/hp/Downloads/btp/Data-Sapiens/FRONT_END/dashboard.html" xlink:title="&lt;TABLE&gt;">
<text text-anchor="start" x="850.64" y="-1316.54" font-family="ambrosia" font-size="24.00">dashboard#html</text>
<text text-anchor="start" x="906.64" y="-1294.54" font-family="Times,serif" font-size="14.00">#Lines : 104</text>
<text text-anchor="start" x="902.64" y="-1275.54" font-family="Times,serif" font-size="14.00">#Commits : 7</text>
</a>
</g>
</g>
<!-- FRONT_END&#45;&gt;dashboard -->
<g id="edge10" class="edge">
<title>FRONT_END&#45;&gt;dashboard</title>
<path fill="none" stroke="black" d="M513.3,-1103.65C554.72,-1146.59 620,-1206.94 688.6,-1241.74 721.99,-1258.68 760.14,-1271.09 796.8,-1280.14"/>
<polygon fill="black" stroke="black" points="796.04,-1283.56 806.58,-1282.49 797.68,-1276.75 796.04,-1283.56"/>
</g>
<!-- login -->
<g id="node12" class="node">
<title>login</title>
<ellipse fill="none" stroke="black" cx="951.64" cy="-1178.74" rx="108.79" ry="53.98"/>
<g id="a_node12_16"><a xlink:href="/home/hp/Downloads/btp/Data-Sapiens/FRONT_END/login.html" xlink:title="&lt;TABLE&gt;">
<text text-anchor="start" x="884.64" y="-1191.54" font-family="ambrosia" font-size="24.00">login#html</text>
<text text-anchor="start" x="910.64" y="-1169.54" font-family="Times,serif" font-size="14.00">#Lines : 40</text>
<text text-anchor="start" x="902.14" y="-1150.54" font-family="Times,serif" font-size="14.00">#Commits : 1</text>
</a>
</g>
</g>
<!-- FRONT_END&#45;&gt;login -->
<g id="edge11" class="edge">
<title>FRONT_END&#45;&gt;login</title>
<path fill="none" stroke="black" d="M566.2,-1082.78C604.3,-1093.81 648.38,-1106.24 688.6,-1116.74 738.96,-1129.89 795.07,-1143.33 842.42,-1154.32"/>
<polygon fill="black" stroke="black" points="841.85,-1157.78 852.38,-1156.63 843.43,-1150.96 841.85,-1157.78"/>
</g>
<!-- nyse -->
<g id="node13" class="node">
<title>nyse</title>
<ellipse fill="none" stroke="black" cx="951.64" cy="-1053.74" rx="108.38" ry="53.98"/>
<g id="a_node13_17"><a xlink:href="/home/hp/Downloads/btp/Data-Sapiens/FRONT_END/nyse.html" xlink:title="&lt;TABLE&gt;">
<text text-anchor="start" x="885.64" y="-1066.54" font-family="ambrosia" font-size="24.00">nyse#html</text>
<text text-anchor="start" x="906.64" y="-1044.54" font-family="Times,serif" font-size="14.00">#Lines : 357</text>
<text text-anchor="start" x="902.64" y="-1025.54" font-family="Times,serif" font-size="14.00">#Commits : 4</text>
</a>
</g>
</g>
<!-- FRONT_END&#45;&gt;nyse -->
<g id="edge12" class="edge">
<title>FRONT_END&#45;&gt;nyse</title>
<path fill="none" stroke="black" d="M584.78,-1053.74C660.01,-1053.74 757.59,-1053.74 833.05,-1053.74"/>
<polygon fill="black" stroke="black" points="833.07,-1057.24 843.07,-1053.74 833.07,-1050.24 833.07,-1057.24"/>
</g>
<!-- index -->
<g id="node14" class="node">
<title>index</title>
<ellipse fill="none" stroke="black" cx="951.64" cy="-928.74" rx="113.69" ry="53.98"/>
<g id="a_node14_18"><a xlink:href="/home/hp/Downloads/btp/Data-Sapiens/FRONT_END/index.html" xlink:title="&lt;TABLE&gt;">
<text text-anchor="start" x="881.64" y="-941.54" font-family="ambrosia" font-size="24.00">index#html</text>
<text text-anchor="start" x="911.14" y="-919.54" font-family="Times,serif" font-size="14.00">#Lines : 24</text>
<text text-anchor="start" x="902.64" y="-900.54" font-family="Times,serif" font-size="14.00">#Commits : 2</text>
</a>
</g>
</g>
<!-- FRONT_END&#45;&gt;index -->
<g id="edge13" class="edge">
<title>FRONT_END&#45;&gt;index</title>
<path fill="none" stroke="black" d="M566.2,-1024.7C604.3,-1013.67 648.38,-1001.24 688.6,-990.74 737.69,-977.92 792.25,-964.83 838.83,-954"/>
<polygon fill="black" stroke="black" points="839.69,-957.39 848.64,-951.72 838.11,-950.57 839.69,-957.39"/>
</g>
<!-- register -->
<g id="node15" class="node">
<title>register</title>
<ellipse fill="none" stroke="black" cx="951.64" cy="-803.74" rx="133.79" ry="53.98"/>
<g id="a_node15_19"><a xlink:href="/home/hp/Downloads/btp/Data-Sapiens/FRONT_END/register.html" xlink:title="&lt;TABLE&gt;">
<text text-anchor="start" x="867.64" y="-816.54" font-family="ambrosia" font-size="24.00">register#html</text>
<text text-anchor="start" x="911.14" y="-794.54" font-family="Times,serif" font-size="14.00">#Lines : 55</text>
<text text-anchor="start" x="902.64" y="-775.54" font-family="Times,serif" font-size="14.00">#Commits : 3</text>
</a>
</g>
</g>
<!-- FRONT_END&#45;&gt;register -->
<g id="edge14" class="edge">
<title>FRONT_END&#45;&gt;register</title>
<path fill="none" stroke="black" d="M513.3,-1003.83C554.72,-960.89 620,-900.54 688.6,-865.74 727.48,-846.01 772.82,-832.43 814.74,-823.14"/>
<polygon fill="black" stroke="black" points="815.72,-826.51 824.76,-820.98 814.24,-819.66 815.72,-826.51"/>
</g>
<!-- transacs -->
<g id="node16" class="node">
<title>transacs</title>
<ellipse fill="none" stroke="black" cx="951.64" cy="-678.74" rx="140.93" ry="53.98"/>
<g id="a_node16_20"><a xlink:href="/home/hp/Downloads/btp/Data-Sapiens/FRONT_END/transacs.html" xlink:title="&lt;TABLE&gt;">
<text text-anchor="start" x="862.64" y="-691.54" font-family="ambrosia" font-size="24.00">transacs#html</text>
<text text-anchor="start" x="906.64" y="-669.54" font-family="Times,serif" font-size="14.00">#Lines : 120</text>
<text text-anchor="start" x="902.64" y="-650.54" font-family="Times,serif" font-size="14.00">#Commits : 4</text>
</a>
</g>
</g>
<!-- FRONT_END&#45;&gt;transacs -->
<g id="edge15" class="edge">
<title>FRONT_END&#45;&gt;transacs</title>
<path fill="none" stroke="black" d="M490.77,-1000.95C523.57,-930.35 591.47,-806.47 688.6,-740.74 722.84,-717.56 764.71,-703 804.84,-693.87"/>
<polygon fill="black" stroke="black" points="805.7,-697.26 814.73,-691.72 804.21,-690.42 805.7,-697.26"/>
</g>
<!-- brokerT -->
<g id="node18" class="node">
<title>brokerT</title>
<ellipse fill="none" stroke="black" cx="951.64" cy="-553.74" rx="122.16" ry="53.98"/>
<g id="a_node18_21"><a xlink:href="/home/hp/Downloads/btp/Data-Sapiens/data_files/brokerT.csv" xlink:title="&lt;TABLE&gt;">
<text text-anchor="start" x="875.64" y="-566.54" font-family="ambrosia" font-size="24.00">brokerT#csv</text>
<text text-anchor="start" x="911.14" y="-544.54" font-family="Times,serif" font-size="14.00">#Lines : 11</text>
<text text-anchor="start" x="902.64" y="-525.54" font-family="Times,serif" font-size="14.00">#Commits : 1</text>
</a>
</g>
</g>
<!-- data_files&#45;&gt;brokerT -->
<g id="edge17" class="edge">
<title>data_files&#45;&gt;brokerT</title>
<path fill="none" stroke="black" d="M564.49,-553.74C637.36,-553.74 738.32,-553.74 818.73,-553.74"/>
<polygon fill="black" stroke="black" points="818.93,-557.24 828.93,-553.74 818.93,-550.24 818.93,-557.24"/>
</g>
<!-- brokers_list -->
<g id="node19" class="node">
<title>brokers_list</title>
<ellipse fill="none" stroke="black" cx="951.64" cy="-428.74" rx="154.71" ry="53.98"/>
<g id="a_node19_22"><a xlink:href="/home/hp/Downloads/btp/Data-Sapiens/data_files/brokers_list.csv" xlink:title="&lt;TABLE&gt;">
<text text-anchor="start" x="852.64" y="-441.54" font-family="ambrosia" font-size="24.00">brokers_list#csv</text>
<text text-anchor="start" x="915.64" y="-419.54" font-family="Times,serif" font-size="14.00">#Lines : 6</text>
<text text-anchor="start" x="902.64" y="-400.54" font-family="Times,serif" font-size="14.00">#Commits : 1</text>
</a>
</g>
</g>
<!-- data_files&#45;&gt;brokers_list -->
<g id="edge18" class="edge">
<title>data_files&#45;&gt;brokers_list</title>
<path fill="none" stroke="black" d="M553.07,-528.51C593.91,-516.61 643.67,-502.47 688.6,-490.74 728.5,-480.32 772.03,-469.72 811.94,-460.3"/>
<polygon fill="black" stroke="black" points="812.8,-463.69 821.73,-457.99 811.19,-456.87 812.8,-463.69"/>
</g>
<!-- stockexchange_brokerid -->
<g id="node20" class="node">
<title>stockexchange_brokerid</title>
<ellipse fill="none" stroke="black" cx="951.64" cy="-303.74" rx="263.09" ry="53.98"/>
<g id="a_node20_23"><a xlink:href="/home/hp/Downloads/btp/Data-Sapiens/data_files/stockexchange_brokerid.csv" xlink:title="&lt;TABLE&gt;">
<text text-anchor="start" x="775.64" y="-316.54" font-family="ambrosia" font-size="24.00">stockexchange_brokerid#csv</text>
<text text-anchor="start" x="910.64" y="-294.54" font-family="Times,serif" font-size="14.00">#Lines : 11</text>
<text text-anchor="start" x="902.14" y="-275.54" font-family="Times,serif" font-size="14.00">#Commits : 1</text>
</a>
</g>
</g>
<!-- data_files&#45;&gt;stockexchange_brokerid -->
<g id="edge19" class="edge">
<title>data_files&#45;&gt;stockexchange_brokerid</title>
<path fill="none" stroke="black" d="M561.39,-540.72C594.07,-531.83 628.59,-516.88 652.6,-491.74 692.82,-449.62 646.48,-405.97 688.6,-365.74 699.62,-355.21 712.09,-346.36 725.45,-338.93"/>
<polygon fill="black" stroke="black" points="727.13,-342 734.36,-334.24 723.88,-335.8 727.13,-342"/>
</g>
</g>
</svg>
